HIERARCHY
ROOT Hips
{
	OFFSET -0.001795 -0.223333 0.028219
	CHANNELS 6 Xposition Yposition Zposition Zrotation Yrotation Xrotation
	JOINT LeftUpLeg
	{
		OFFSET 0.069520 -0.091406 -0.006815
		CHANNELS 3 Zrotation Yrotation Xrotation
		JOINT LeftLeg
		{
			OFFSET 0.034277 -0.375199 -0.004496
			CHANNELS 3 Zrotation Yrotation Xrotation
			JOINT LeftFoot
			{
				OFFSET -0.013596 -0.397961 -0.043693
				CHANNELS 3 Zrotation Yrotation Xrotation
				JOINT LeftToe
				{
					OFFSET 0.026358 -0.055791 0.119288
					CHANNELS 3 Zrotation Yrotation Xrotation
					End Site
					{
						OFFSET 0.000000 0.000000 0.000000
					}
				}
			}
		}
	}
	JOINT RightUpLeg
	{
		OFFSET -0.067670 -0.090522 -0.004320
		CHANNELS 3 Zrotation Yrotation Xrotation
		JOINT RightLeg
		{
			OFFSET -0.038290 -0.382569 -0.008850
			CHANNELS 3 Zrotation Yrotation Xrotation
			JOINT RightFoot
			{
				OFFSET 0.015774 -0.398415 -0.042312
				CHANNELS 3 Zrotation Yrotation Xrotation
				JOINT RightToe
				{
					OFFSET -0.025372 -0.048144 0.123348
					CHANNELS 3 Zrotation Yrotation Xrotation
					End Site
					{
						OFFSET 0.000000 0.000000 0.000000
					}
				}
			}
		}
	}
	JOINT Spine
	{
		OFFSET -0.002533 0.108963 -0.026696
		CHANNELS 3 Zrotation Yrotation Xrotation
		JOINT Spine1
		{
			OFFSET 0.005487 0.135180 0.001092
			CHANNELS 3 Zrotation Yrotation Xrotation
			JOINT Spine2
			{
				OFFSET 0.001457 0.052922 0.025425
				CHANNELS 3 Zrotation Yrotation Xrotation
				JOINT Neck
				{
					OFFSET -0.002778 0.213870 -0.042857
					CHANNELS 3 Zrotation Yrotation Xrotation
					JOINT Head
					{
						OFFSET 0.005152 0.064970 0.051349
						CHANNELS 3 Zrotation Yrotation Xrotation
						End Site
						{
							OFFSET 0.000000 0.000000 0.000000
						}
					}
				}
				JOINT LeftShoulder
				{
					OFFSET 0.078845 0.121749 -0.034090
					CHANNELS 3 Zrotation Yrotation Xrotation
					JOINT LeftArm
					{
						OFFSET 0.090977 0.030469 -0.008868
						CHANNELS 3 Zrotation Yrotation Xrotation
						JOINT LeftForeArm
						{
							OFFSET 0.259612 -0.012772 -0.027456
							CHANNELS 3 Zrotation Yrotation Xrotation
							JOINT LeftHand
							{
								OFFSET 0.249234 0.008986 -0.001171
								CHANNELS 3 Zrotation Yrotation Xrotation
								End Site
								{
									OFFSET 0.000000 0.000000 0.000000
								}
							}
						}
					}
				}
				JOINT RightShoulder
				{
					OFFSET -0.081759 0.118833 -0.038615
					CHANNELS 3 Zrotation Yrotation Xrotation
					JOINT RightArm
					{
						OFFSET -0.096012 0.032551 -0.009143
						CHANNELS 3 Zrotation Yrotation Xrotation
						JOINT RightForeArm
						{
							OFFSET -0.253742 -0.013329 -0.021401
							CHANNELS 3 Zrotation Yrotation Xrotation
							JOINT RightHand
							{
								OFFSET -0.255298 0.007772 -0.005559
								CHANNELS 3 Zrotation Yrotation Xrotation
								End Site
								{
									OFFSET 0.000000 0.000000 0.000000
								}
							}
						}
					}
				}
			}
		}
	}
}
MOTION
Frames: 11
Frame Time: 0.050000
-0.234171 0.139365 2.988763 24.175073 -12.254574 -83.673553 -4.970725 -2.538787 -37.569649 31.824679 -9.754965 36.761566 -22.514591 -1.745572 58.511348 0.000000 0.000000 0.000000 -16.319267 -0.278139 -22.191507 24.714858 -1.784905 24.455044 -20.143372 -42.996432 -18.887970 0.000000 0.000000 0.000000 40.423117 22.518693 -17.370004 -6.030012 4.422755 10.938822 -25.537882 -22.427477 38.411178 8.576089 -9.899501 -6.408240 0.000000 0.000000 0.000000 -4.653316 -26.660477 14.060007 -62.664785 -33.801965 12.694313 23.479143 -38.485689 -4.400451 0.000000 0.000000 0.000000 -9.967295 22.212158 6.546687 87.104703 33.330961 2.277571 -36.083432 18.781335 -6.313682 0.000000 0.000000 0.000000
-0.231444 0.134045 2.992498 23.782378 -10.054950 -84.038381 -2.475811 -1.704956 -37.148845 28.649346 -9.519462 37.792767 -21.223638 -1.456740 57.219808 0.000000 0.000000 0.000000 -17.985481 -0.772918 -22.354608 23.422601 -1.946139 25.487300 -19.257939 -43.334071 -23.952329 0.000000 0.000000 0.000000 38.873369 21.543224 -18.130736 -4.215470 2.880230 9.275144 -26.041564 -18.845740 38.902263 10.327036 -11.354356 -4.513867 0.000000 0.000000 0.000000 -4.312278 -27.664530 13.591785 -61.645971 -31.803165 10.595687 22.102857 -41.178158 -4.268458 0.000000 0.000000 0.000000 -8.852065 21.211761 6.223564 86.603071 33.321646 4.103463 -35.185410 18.175848 -5.416025 0.000000 0.000000 0.000000
-0.227837 0.128700 2.995019 23.335261 -7.890368 -84.732020 -1.397382 -1.578757 -35.492708 26.643065 -9.351515 38.637647 -21.177210 -1.795630 56.481527 0.000000 0.000000 0.000000 -18.674692 -1.091647 -23.786199 20.197505 -1.615497 29.612731 -18.861210 -40.504228 -21.506188 0.000000 0.000000 0.000000 37.114432 20.977983 -19.680931 -2.251996 1.450488 7.892126 -27.822419 -17.881185 42.381249 9.861796 -11.490804 -4.181632 0.000000 0.000000 0.000000 -3.280469 -27.149398 12.415848 -59.058723 -28.840004 8.017631 26.757147 -44.856324 -6.294479 0.000000 0.000000 0.000000 -10.473546 20.247112 6.213117 87.114679 33.311067 3.136649 -34.271123 26.551861 -7.500903 0.000000 0.000000 0.000000
-0.223822 0.129809 2.994142 22.026223 -5.898890 -86.059652 -0.058606 -1.335272 -32.778286 20.904626 -7.722548 38.831331 -18.839836 -0.034013 57.627500 0.000000 0.000000 0.000000 -17.879061 -1.285675 -23.370030 15.705346 -0.522821 34.760331 -18.123061 -41.090420 -25.444231 0.000000 0.000000 0.000000 35.431042 19.364237 -19.423369 -2.516869 1.452917 6.260413 -26.433035 -18.563330 45.030143 8.860773 -11.204200 -4.350356 0.000000 0.000000 0.000000 -6.073789 -27.528853 13.775894 -55.521562 -28.062866 5.917531 37.313428 -45.172788 -10.216461 0.000000 0.000000 0.000000 -9.403524 15.609782 4.955652 85.097446 30.117484 -0.171230 -28.338741 40.234034 -9.660066 0.000000 0.000000 0.000000
-0.220548 0.129689 2.991323 19.650240 -5.841131 -86.885303 3.221726 0.053340 -31.798310 16.775223 -6.524867 37.617606 -20.085417 -0.618432 58.264180 0.000000 0.000000 0.000000 -15.866650 -0.889995 -26.131928 13.062266 0.966396 43.293797 -19.594703 -42.776464 -17.196845 0.000000 0.000000 0.000000 33.806307 18.332703 -19.151729 0.905543 -0.587808 10.690622 -27.942438 -21.448357 42.248862 9.046280 -11.127522 3.449043 0.000000 0.000000 0.000000 -12.290775 -24.881055 16.437536 -46.836456 -27.097700 2.444796 44.332978 -49.576046 -14.120769 0.000000 0.000000 0.000000 -2.259442 16.974067 3.811686 77.859991 26.379370 -1.165973 -30.045419 48.574746 -14.553592 0.000000 0.000000 0.000000
-0.218929 0.131688 2.988532 17.573143 -6.146852 -87.158913 6.234274 1.384877 -30.591099 12.794911 -5.195414 35.574724 -20.124662 -0.886475 57.624943 0.000000 0.000000 0.000000 -14.676415 -0.230078 -30.903283 11.211335 2.790319 53.499633 -16.770434 -33.715071 -4.464570 0.000000 0.000000 0.000000 32.882972 17.561051 -18.639641 1.196625 -0.861034 13.399306 -26.157124 -23.414767 40.546679 9.347593 -11.359256 2.808544 0.000000 0.000000 0.000000 -18.733059 -24.127968 19.652426 -39.865536 -25.552682 -0.131393 50.231851 -49.164902 -17.035234 0.000000 0.000000 0.000000 2.801286 17.221909 2.665199 69.942536 22.807393 -1.374868 -25.028001 55.592804 -15.564649 0.000000 0.000000 0.000000
-0.218342 0.131162 2.987041 15.164283 -6.388956 -87.018264 10.292191 3.122367 -29.072718 7.408944 -3.272565 34.013072 -16.347028 0.845535 55.346412 0.000000 0.000000 0.000000 -15.386569 -0.225154 -35.058793 14.341043 1.093156 60.837350 -18.682459 -35.310073 6.731267 0.000000 0.000000 0.000000 30.558604 16.264139 -18.440575 0.189315 -0.221021 16.946631 -21.692106 -23.920667 37.783672 9.059136 -10.807168 10.167927 0.000000 0.000000 0.000000 -21.575649 -24.591032 21.206340 -36.046094 -22.892235 -1.609313 48.698258 -50.225283 -17.688813 0.000000 0.000000 0.000000 9.688827 17.665058 1.690671 63.325002 18.397675 -1.407749 -26.341756 59.844825 -17.886457 0.000000 0.000000 0.000000
-0.217201 0.130486 2.986805 14.103423 -6.826169 -87.620862 13.288322 4.498797 -28.190955 5.290337 -2.653853 35.741317 -16.368922 -0.133981 52.375039 0.000000 0.000000 0.000000 -17.194146 -0.797797 -36.324934 13.810885 1.629630 62.745769 -19.781496 -36.105412 10.212634 0.000000 0.000000 0.000000 30.312340 14.301902 -13.953337 3.388902 -2.621894 15.254028 -25.131293 -18.121098 37.934977 12.836160 -15.694451 12.169862 0.000000 0.000000 0.000000 -20.856371 -23.860306 18.720513 -35.740089 -20.972038 -2.012217 39.662424 -57.694515 -16.059141 0.000000 0.000000 0.000000 19.529736 13.676684 -0.716863 53.754251 16.180193 -0.596320 -15.632107 61.260824 -9.956090 0.000000 0.000000 0.000000
-0.214609 0.135994 2.988490 12.558079 -7.588873 -86.802720 16.076897 6.130695 -31.259329 2.839126 -1.864123 40.704591 -15.758321 0.147823 51.372840 0.000000 0.000000 0.000000 -18.462225 -1.316559 -36.348772 12.443127 1.977613 58.378549 -14.507334 -27.474482 23.873212 0.000000 0.000000 0.000000 29.020056 12.582092 -11.014072 0.712222 -0.719172 14.923273 -19.495105 -17.293665 34.788746 10.956627 -13.500878 12.943262 0.000000 0.000000 0.000000 -29.256496 -22.381588 21.406486 -29.416968 -19.907420 -2.835130 27.365697 -60.678977 -11.621324 0.000000 0.000000 0.000000 22.022028 18.036477 2.412946 48.026135 12.460397 -1.386554 -19.791637 58.423689 -11.227426 0.000000 0.000000 0.000000
-0.211529 0.131536 2.992882 9.767302 -8.299052 -84.552777 16.588081 6.367385 -33.406868 4.204381 -3.065883 43.025062 -14.014097 -0.754881 44.258387 0.000000 0.000000 0.000000 -19.324352 -1.807829 -36.548677 10.258711 2.373364 55.624125 -14.938775 -27.489050 25.104470 0.000000 0.000000 0.000000 26.355408 11.227674 -11.504608 3.181869 -2.867481 23.487811 -18.214851 -15.646215 26.260705 13.475591 -16.942461 22.496360 0.000000 0.000000 0.000000 -30.344991 -25.293621 22.337520 -29.765858 -19.451568 -2.217638 17.739956 -59.242169 -6.366489 0.000000 0.000000 0.000000 26.942870 13.591417 0.147172 45.317643 13.378094 -0.085160 -15.342681 55.634817 -7.611094 0.000000 0.000000 0.000000
-0.208108 0.134699 2.998741 9.205346 -8.708485 -82.516353 18.906527 7.472505 -33.251952 2.195895 -2.296636 47.825581 -10.677187 -2.579178 30.331209 0.000000 0.000000 0.000000 -21.199958 -2.417235 -36.535671 9.353093 2.700421 53.490426 -14.377396 -27.054972 21.124977 0.000000 0.000000 0.000000 24.836502 9.848232 -9.233423 2.453735 -2.278323 35.470431 -15.286381 -15.281383 13.258293 13.512346 -18.308943 35.141724 0.000000 0.000000 0.000000 -35.611000 -25.838206 23.776474 -28.775158 -20.227495 -1.331420 13.995377 -55.422239 -4.257870 0.000000 0.000000 0.000000 34.394040 13.735314 0.224691 38.607886 10.725156 0.547565 -10.952142 53.046793 -4.544846 0.000000 0.000000 0.000000
